<?xml version="1.0" encoding="UTF-8" standalone="no"?>
<svg width="9px" height="10px" viewBox="0 0 9 10" version="1.1" xmlns="http://www.w3.org/2000/svg" xmlns:xlink="http://www.w3.org/1999/xlink" xmlns:sketch="http://www.bohemiancoding.com/sketch/ns">
    <!-- Generator: Sketch 3.0.4 (8053) - http://www.bohemiancoding.com/sketch -->
    <title>scroll-arrow</title>
    <desc>Created with Sketch.</desc>
    <defs></defs>
    <g id="Header" stroke="none" stroke-width="1" fill="none" fill-rule="evenodd" sketch:type="MSPage">
        <g id="13-inch" sketch:type="MSArtboardGroup" transform="translate(-1193.000000, -587.000000)">
            <path d="M1201.01066,588 C1201.55706,588 1201.66177,588.30065 1201.25692,588.660519 L1197.5,592 L1193.74308,588.660519 C1193.33269,588.295724 1193.45345,588 1193.98934,588 L1194.23834,588 C1194.79195,588 1195.5741,588.309862 1195.98051,588.687619 L1197.5,590.1 L1199.01949,588.687619 C1199.42805,588.307857 1200.21271,588 1200.76166,588 L1201.01066,588 L1201.01066,588 Z M1200.9976,593 C1201.55121,593 1201.66177,593.30065 1201.25692,593.660519 L1197.5,597 L1193.74308,593.660519 C1193.33269,593.295724 1193.45345,593 1194.0024,593 L1194.23834,593 C1194.79195,593 1195.5741,593.309862 1195.98051,593.687619 L1197.5,595.1 L1199.01949,593.687619 C1199.42805,593.307857 1200.21271,593 1200.76166,593 L1200.9976,593 L1200.9976,593 Z" id="scroll-arrow" fill="#FFFFFF" sketch:type="MSShapeGroup"></path>
            <path d="M1201.01066,587 C1201.55706,587 1201.66177,587.30065 1201.25692,587.660519 L1197.5,591 L1193.74308,587.660519 C1193.33269,587.295724 1193.45345,587 1193.98934,587 L1194.23834,587 C1194.79195,587 1195.5741,587.309862 1195.98051,587.687619 L1197.5,589.1 L1199.01949,587.687619 C1199.42805,587.307857 1200.21271,587 1200.76166,587 L1201.01066,587 L1201.01066,587 Z M1200.9976,592 C1201.55121,592 1201.66177,592.30065 1201.25692,592.660519 L1197.5,596 L1193.74308,592.660519 C1193.33269,592.295724 1193.45345,592 1194.0024,592 L1194.23834,592 C1194.79195,592 1195.5741,592.309862 1195.98051,592.687619 L1197.5,594.1 L1199.01949,592.687619 C1199.42805,592.307857 1200.21271,592 1200.76166,592 L1200.9976,592 L1200.9976,592 Z" id="scroll-arrow" fill="#74C5C2" sketch:type="MSShapeGroup"></path>
        </g>
    </g>
</svg>